<!-- AI Workspace: a claim tethered to its source.

     The in-app mark is drawn in `currentColor` so it takes the theme, but a favicon has no theme
     to take — it sits on whatever colour the browser paints its tab strip. So this version is
     reversed out of a solid indigo tile, which reads on a light tab bar and a dark one alike.
     Same geometry as web/src/components/brand/BrandMark.tsx, inset to leave the tile a margin. -->
<svg xmlns="http://www.w3.org/2000/svg" viewBox="0 0 32 32" width="32" height="32">
  <rect width="32" height="32" rx="7" fill="#4338CA"/>
  <g transform="translate(4.4 4.4) scale(0.725)">
    <path d="M4.4 2h12.2a2.4 2.4 0 0 1 2.4 2.4v7.4a2.4 2.4 0 0 1-2.4 2.4h-4.9l-3.3 2.9a.6.6 0 0 1-1-.45V14.2H4.4A2.4 2.4 0 0 1 2 11.8V4.4A2.4 2.4 0 0 1 4.4 2Z" fill="#FFFFFF"/>
    <path d="M8 19.4V25.6H18.2" fill="none" stroke="#FFFFFF" stroke-width="2.4" stroke-linecap="round" stroke-linejoin="round"/>
    <rect x="20.4" y="17.6" width="9.6" height="12" rx="2" fill="#FFFFFF"/>
  </g>
</svg>
